<svg id="Layer_1" data-name="Layer 1" xmlns="http://www.w3.org/2000/svg" viewBox="0 0 1837.7 333.37">
  <defs>
    <style>
      .cls-1 {
        fill: #e6e6e6;
      }
    </style>
  </defs>
  <g>
    <g>
      <path class="cls-1" d="M1150.27,301.22a25.41,25.41,0,0,0-2.85-.25q-55.35-.33-110.68-.62-12.48-.06-24.94,0c-17,0-34.49.06-51.7-.41-28.28-.77-45-18-45.94-47.19-.22-7.06-.2-14.28-.18-21.27,0-7.68,0-15.63-.24-23.48a9,9,0,0,1,.26-3.5h0c.07-.05.7-.46,3.62-.43,62.69.22,126.43.22,188.06.2h38.1c1.71,0,3.42-.1,5.16-.21l2.28-.13,4.18-.2V158.49H914.22v-99H1155.4V13.79H870l0,65.61c0,50.09-.06,101.88.14,152.82,0,13.16.44,27.25,2.92,41.1,6.41,35.74,25,57.83,55.33,65.67,18,4.67,34.1,7,49.12,7.28,24.94.38,50.13.48,75.11.48,15.89,0,31.69,0,47.28-.08q22.36-.06,44.74-.09c1.58,0,3.16-.09,4.73-.19l6.14-.32V301.79l-3.93-.41Z" transform="translate(-11.3 -13.39)"/>
      <path class="cls-1" d="M358.18,37.7c-24.78-18.24-53.89-21.59-73.63-22.53-26.28-1.24-53-1.38-78.83-1.51q-12.6-.06-25.18-.17c-15.16-.14-30.64-.11-45.61-.07q-10.31,0-20.74,0H109.8V346.6h30c11.25,0,13.23-2,13.23-13.23V333q.11-135.25.29-270.52c0-.9,0-1.79.08-2.73l33.82,0c26.3,0,53.5,0,80.24.08a221.08,221.08,0,0,1,27.88,1.62c33.14,4.29,53.85,22.05,61.57,52.77,3.9,15.54,4.59,32.28,4.75,48.05.41,40.94.37,82.58.33,122.85q0,24.88,0,49.76c0,1.61.1,3.22.22,4.88.05.72.1,1.45.14,2.19l.22,4.16h42.36l.47-3.86c.05-.43.11-.81.16-1.16a17.82,17.82,0,0,0,.24-2.54c0-18.74.16-37.8.34-56.24.5-52,1-105.71-3.06-158.56C400.12,86.4,385,57.46,358.18,37.7Z" transform="translate(-11.3 -13.39)"/>
      <path class="cls-1" d="M715.9,300.36c-12,0-24.11,0-36.17.07-26.84.12-54.6.24-81.84-.56-57.47-1.71-100.43-39.42-109.44-96.07-1.31-8.24-1.14-17.08-1-25.62,0-2.85.11-5.7.11-8.54.06-46,31.17-89.37,74-103.07,19.18-6.14,39.43-6.93,58.35-6.88,38.24.1,72.9.06,106-.13,2.92,0,10.7-2.33,10.93-7.42.4-8.85.37-17.72.33-26.29,0-2.48,0-5,0-7.39V14.07h-4.39c-13.48,0-26.89-.07-40.26-.14-30.26-.16-61.56-.33-92.22.39-37.4.87-70,12.12-96.86,33.42C463,79.79,442.25,124,441.81,179.08c-.42,54.07,19.51,98.17,59.24,131.08,29,24,65.11,35.89,110.48,36.36,13.56.14,27.23.18,40.82.18,10.71,0,21.36,0,31.85-.05s21.29,0,31.93,0h21.31V335.41c0-4.55,0-8.78,0-13,0-10,.07-15.05-3.39-18.53S725.71,300.38,715.9,300.36Z" transform="translate(-11.3 -13.39)"/>
      <path class="cls-1" d="M1496.88,13.81h-303.1V59.73l50.25,0c25.08,0,51,0,76.54-.07a13.75,13.75,0,0,1,2.74.17,9.11,9.11,0,0,1,.25,2.58c-.13,66.66,0,134.44,0,200l.06,84.17h4.39c3.18,0,6.21,0,9.15-.06,6.45-.08,12.54-.14,18.46.19.41,0,.85,0,1.31,0a10.54,10.54,0,0,0,7.46-2.5c2.66-2.52,3-6.23,3-9.52,0-73.3.08-147.83.19-219.9l.07-55.08h22.87q47.55,0,95.08,0h0c.36,0,.74,0,1.12,0,2.08.1,5.24.24,7.65-2.06a8.62,8.62,0,0,0,2.43-6.52c0-7.71,0-15.42,0-23.25Z" transform="translate(-11.3 -13.39)"/>
      <rect class="cls-1" y="0.39" width="42.06" height="332.48"/>
      <path class="cls-1" d="M822.91,13.79H781.06V346.55h4.39c2.92,0,5.76,0,8.56-.08,6.38-.08,12.4-.18,18.38.23.39,0,.81.05,1.25.05a9,9,0,0,0,7.34-3.14c2.59-3.14,2.93-7.61,2.93-11.58q-.17-144.3-.15-288.61C823.48,3.3,823.19,53.91,822.91,13.79Z" transform="translate(-11.3 -13.39)"/>
    </g>
    <g>
      <path class="cls-1" d="M1523.41,117.57V248.06h45.66V117.57a58.18,58.18,0,0,1,58.11-58.11H1849V13.79H1627.18A103.78,103.78,0,0,0,1523.41,117.57Z" transform="translate(-11.3 -13.39)"/>
      <path class="cls-1" d="M1803.34,105.12V235.23a58.55,58.55,0,0,1-58.49,58.49H1523.41v45.67h221.44A104.15,104.15,0,0,0,1849,235.23V105.12Z" transform="translate(-11.3 -13.39)"/>
    </g>
    <polygon class="cls-1" points="1656.45 229.84 1585.89 160.63 1612.53 133.47 1656.35 176.44 1737.17 96.56 1763.91 123.63 1656.45 229.84"/>
  </g>
</svg>
