<svg id="Layer_1" data-name="Layer 1" xmlns="http://www.w3.org/2000/svg" viewBox="0 0 1849.77 335.56">
  <defs>
    <style>
      .cls-1 {
        fill: #0c1c24;
      }

      .cls-2 {
        fill: #00b7c6;
      }
    </style>
  </defs>
  <g>
    <g>
      <path class="cls-1" d="M1151.58,298.23a23.56,23.56,0,0,0-2.87-.25q-55.7-.33-111.41-.63-12.54-.06-25.1,0c-17.07,0-34.72.06-52-.41-28.47-.78-45.33-18.09-46.25-47.5-.22-7.11-.2-14.38-.18-21.41,0-7.73.06-15.73-.24-23.64a9.08,9.08,0,0,1,.26-3.51h0c.07-.06.71-.47,3.64-.43,63.11.22,127.27.21,189.3.19h38.35c1.72,0,3.45-.1,5.19-.21l2.3-.13,4.21-.2V154.56H914V55h242.76v-46H869.48l0,66.05c0,50.41-.06,102.54.14,153.82,0,13.25.45,27.43,2.95,41.37,6.44,36,25.18,58.21,55.68,66.1,18.15,4.69,34.33,7.09,49.45,7.32,25.11.39,50.46.49,75.6.49,16,0,31.89,0,47.59-.08q22.52-.06,45-.09c1.59,0,3.18-.1,4.76-.2l6.17-.32V298.8l-3.95-.41Z" transform="translate(-5.14 -8.51)"/>
      <path class="cls-1" d="M354.29,33c-25-18.35-54.25-21.73-74.11-22.67-26.45-1.25-53.35-1.39-79.35-1.52q-12.68-.06-25.35-.17c-15.26-.14-30.84-.11-45.9-.07q-10.38,0-20.88,0h-4.42V343.9h30.15c11.32,0,13.31-2,13.32-13.32v-.36q.1-136.14.29-272.3c0-.9,0-1.81.08-2.74l34,0c26.48,0,53.85,0,80.77.08A224,224,0,0,1,291,56.86c33.36,4.32,54.2,22.2,62,53.12,3.93,15.65,4.62,32.49,4.78,48.36.41,41.21.37,83.13.33,123.66q0,25,0,50.09c0,1.62.11,3.25.22,4.91.05.73.1,1.46.14,2.21l.23,4.18h42.63l.48-3.88c.05-.44.11-.82.16-1.17a16.6,16.6,0,0,0,.24-2.56c0-18.86.16-38,.34-56.6.51-52.32,1-106.41-3.08-159.6C396.5,82,381.32,52.86,354.29,33Z" transform="translate(-5.14 -8.51)"/>
      <path class="cls-1" d="M714.36,297.36c-12.13,0-24.27,0-36.41.08-27,.12-55,.24-82.37-.57-57.86-1.72-101.1-39.68-110.16-96.71-1.32-8.29-1.15-17.18-1-25.78.05-2.87.11-5.74.11-8.59.06-46.33,31.37-90,74.46-103.76,19.32-6.18,39.7-7,58.74-6.92,38.49.11,73.38.07,106.65-.13,2.94,0,10.78-2.34,11-7.47.4-8.9.37-17.83.33-26.46q0-3.75,0-7.44V9.19h-4.42c-13.57,0-27.07-.07-40.52-.14-30.46-.16-62-.33-92.83.39-37.64.88-70.44,12.2-97.49,33.65-40.69,32.25-61.54,76.73-62,132.2C438,229.71,458.1,274.1,498.1,307.23c29.16,24.16,65.54,36.13,111.21,36.6,13.64.14,27.41.18,41.09.18,10.77,0,21.49,0,32.05-.05s21.43-.06,32.15-.06H736V332.64c0-4.57,0-8.83,0-13.12.05-10.08.07-15.14-3.41-18.65S724.24,297.38,714.36,297.36Z" transform="translate(-5.14 -8.51)"/>
      <path class="cls-1" d="M1500.47,8.93H1195.38V55.15l50.57,0c25.25,0,51.36,0,77-.07a12.72,12.72,0,0,1,2.76.18,9.15,9.15,0,0,1,.25,2.59c-.13,67.1,0,135.33,0,201.31l.07,84.72h4.41c3.2,0,6.26,0,9.21-.06,6.49-.08,12.62-.15,18.59.18.41,0,.85,0,1.31,0a10.63,10.63,0,0,0,7.51-2.52c2.67-2.54,3-6.27,3-9.58,0-73.78.08-148.8.19-221.35l.07-55.43h23l95.71,0h0l1.12,0c2.1.1,5.28.25,7.71-2.07a8.7,8.7,0,0,0,2.44-6.56c0-7.76,0-15.52,0-23.4Z" transform="translate(-5.14 -8.51)"/>
      <rect class="cls-1" y="0.39" width="42.33" height="334.67"/>
      <path class="cls-1" d="M822.07,8.91H780v335h4.41c2.94,0,5.81,0,8.62-.08,6.42-.09,12.49-.18,18.5.23.4,0,.82.05,1.26.05a9.06,9.06,0,0,0,7.39-3.17c2.6-3.15,3-7.66,3-11.65q-.17-145.24-.15-290.5C822.64-1.65,822.36,49.3,822.07,8.91Z" transform="translate(-5.14 -8.51)"/>
    </g>
    <g>
      <path class="cls-2" d="M1527.17,113.37V244.72h46V113.37a58.56,58.56,0,0,1,58.5-58.49H1854.9v-46H1631.63A104.46,104.46,0,0,0,1527.17,113.37Z" transform="translate(-5.14 -8.51)"/>
      <path class="cls-2" d="M1808.94,100.84v131a58.94,58.94,0,0,1-58.87,58.87h-222.9v46h222.9A104.84,104.84,0,0,0,1854.9,231.81v-131Z" transform="translate(-5.14 -8.51)"/>
    </g>
    <polygon class="cls-2" points="1667.33 231.35 1596.3 161.69 1623.12 134.34 1667.22 177.6 1748.58 97.19 1775.5 124.44 1667.33 231.35"/>
  </g>
</svg>
