<svg id="Layer_1" data-name="Layer 1" xmlns="http://www.w3.org/2000/svg" viewBox="0 0 1839.04 333.61">
  <g>
    <g>
      <path d="M1150.76,299.47a23.25,23.25,0,0,0-2.85-.25q-55.38-.33-110.76-.62c-8.33-.05-16.65,0-25,0-17,0-34.52.06-51.74-.4-28.3-.78-45.06-18-46-47.23-.23-7.06-.2-14.29-.18-21.28,0-7.69.05-15.65-.24-23.5a9,9,0,0,1,.26-3.5h0c.07,0,.7-.46,3.62-.43,62.74.22,126.53.21,188.2.2h38.13c1.71,0,3.42-.1,5.16-.2.75,0,1.51-.1,2.28-.13l4.18-.2V156.63H914.54v-99h241.35V11.83H870.29l0,65.66c0,50.12,0,102,.15,152.93.05,13.17.44,27.27,2.92,41.13,6.41,35.76,25,57.87,55.36,65.71,18,4.67,34.13,7.05,49.17,7.29,25,.38,50.17.48,75.16.48,15.9,0,31.71,0,47.31-.08q22.4-.06,44.78-.09c1.58,0,3.16-.09,4.73-.19l6.14-.32V300l-3.93-.42C1151.59,299.58,1151.16,299.52,1150.76,299.47Z" transform="translate(-10.96 -11.43)"/>
      <path d="M358.09,35.75c-24.8-18.25-53.93-21.6-73.68-22.54-26.3-1.24-53-1.38-78.89-1.51-8.4,0-16.8-.09-25.2-.17-15.17-.14-30.66-.11-45.64-.07q-10.32,0-20.75,0h-4.4V344.88h30c11.25,0,13.23-2,13.24-13.24v-.36q.1-135.36.28-270.71c0-.9,0-1.8.09-2.74l33.84,0c26.32,0,53.54,0,80.3.08a223.44,223.44,0,0,1,27.9,1.62c33.16,4.3,53.89,22.07,61.61,52.81,3.91,15.56,4.59,32.3,4.75,48.08.41,41,.37,82.65.33,123q0,24.9,0,49.79c0,1.62.11,3.23.22,4.89.05.72.1,1.45.14,2.19l.23,4.16H404.8l.47-3.87c.06-.43.11-.81.17-1.15a17.81,17.81,0,0,0,.24-2.55c0-18.75.16-37.82.34-56.28.5-52,1-105.78-3.07-158.67C400.06,84.49,385,55.53,358.09,35.75Z" transform="translate(-10.96 -11.43)"/>
      <path d="M716.07,298.6c-12.05,0-24.12,0-36.19.08-26.86.12-54.64.24-81.9-.57C540.46,296.4,497.47,258.67,488.46,202c-1.31-8.24-1.14-17.08-1-25.63,0-2.86.11-5.71.11-8.55.05-46.06,31.19-89.44,74-103.15,19.2-6.14,39.46-6.93,58.4-6.88,38.26.1,73,.07,106-.13,2.92,0,10.71-2.33,10.94-7.43.4-8.85.37-17.72.33-26.31q0-3.72,0-7.39V12.11h-4.4c-13.48,0-26.9-.07-40.28-.14-30.29-.16-61.6-.33-92.29.39-37.43.87-70,12.12-96.93,33.44C463,77.87,442.22,122.1,441.79,177.24c-.43,54.11,19.51,98.24,59.27,131.18,29,24,65.17,35.91,110.57,36.38,13.56.14,27.25.18,40.85.18,10.71,0,21.37,0,31.87-.05s21.3-.05,32-.05h21.32v-11.2c0-4.55,0-8.78,0-13,0-10,.07-15.06-3.39-18.54S725.9,298.62,716.07,298.6Z" transform="translate(-10.96 -11.43)"/>
      <path d="M1497.63,11.84H1194.3v46l50.28,0c25.11,0,51.06,0,76.6-.07a13.81,13.81,0,0,1,2.75.17,9.17,9.17,0,0,1,.25,2.58c-.13,66.72,0,134.54,0,200.14l.07,84.23h4.39c3.18,0,6.22,0,9.16-.06,6.45-.08,12.54-.14,18.47.19.41,0,.85,0,1.31,0a10.5,10.5,0,0,0,7.46-2.51c2.67-2.52,3-6.22,3-9.52,0-73.35.08-147.93.19-220.06l.07-55.11h22.89q47.57,0,95.15,0h0c.36,0,.73,0,1.11,0,2.09.1,5.25.24,7.67-2.06a8.65,8.65,0,0,0,2.42-6.52c0-7.72,0-15.43,0-23.27Z" transform="translate(-10.96 -11.43)"/>
      <rect y="0.39" width="42.09" height="332.73"/>
      <path d="M823.16,11.83H781.28v333h4.39c2.92,0,5.77,0,8.57-.08,6.38-.08,12.41-.18,18.39.24.4,0,.82,0,1.26,0a9,9,0,0,0,7.34-3.15c2.59-3.13,2.93-7.61,2.93-11.58Q824,185.9,824,41.48C823.73,1.33,823.44,52,823.16,11.83Z" transform="translate(-10.96 -11.43)"/>
    </g>
    <g>
      <path d="M1524.17,115.68V246.27h45.7V115.68A58.21,58.21,0,0,1,1628,57.53h222V11.83H1628A103.86,103.86,0,0,0,1524.17,115.68Z" transform="translate(-10.96 -11.43)"/>
      <path d="M1804.3,103.22V233.43A58.6,58.6,0,0,1,1745.77,292h-221.6v45.69h221.6A104.22,104.22,0,0,0,1850,233.43V103.22Z" transform="translate(-10.96 -11.43)"/>
    </g>
    <polygon points="1657.65 230.01 1587.04 160.75 1613.71 133.56 1657.55 176.57 1738.43 96.63 1765.2 123.72 1657.65 230.01"/>
  </g>
</svg>
