<svg id="Layer_1" data-name="Layer 1" xmlns="http://www.w3.org/2000/svg" viewBox="0 0 1837.04 333.25">
  <defs>
    <style>
      .cls-1 {
        fill: #e6e6e6;
      }

      .cls-2 {
        fill: #00b7c6;
      }
    </style>
  </defs>
  <g>
    <g>
      <path class="cls-1" d="M1149.52,299.68a23.13,23.13,0,0,0-2.85-.24q-55.32-.35-110.64-.63-12.46-.06-24.93,0c-17,0-34.48.06-51.68-.41-28.27-.77-45-18-45.93-47.17-.22-7.06-.19-14.28-.17-21.26,0-7.68,0-15.63-.25-23.48a9.3,9.3,0,0,1,.26-3.49h0c.08-.05.71-.46,3.62-.43,62.67.22,126.39.21,188,.2H1143c1.71,0,3.43-.1,5.16-.2l2.28-.13,4.18-.2V157H913.56V58.09h241.09V12.36H869.36l0,65.59c0,50.06-.06,101.84.14,152.76,0,13.16.44,27.24,2.92,41.09,6.41,35.72,25,57.8,55.31,65.64,18,4.66,34.09,7,49.11,7.27,24.93.38,50.11.49,75.08.49,15.88,0,31.67,0,47.26-.09q22.35-.06,44.72-.08c1.58,0,3.16-.1,4.73-.2l6.14-.32V300.25l-3.93-.41Z" transform="translate(-10.96 -11.95)"/>
      <path class="cls-1" d="M357.72,36.25C332.94,18,303.84,14.67,284.11,13.74c-26.27-1.25-53-1.38-78.8-1.51-8.39-.05-16.79-.09-25.17-.17C165,11.91,149.51,12,134.55,12q-10.31,0-20.74,0h-4.38V345h29.94c11.24,0,13.22-2,13.22-13.23v-.36q.1-135.21.29-270.42c0-.9,0-1.8.08-2.73l33.81,0c26.29,0,53.48-.05,80.21.08A223.11,223.11,0,0,1,294.85,60c33.13,4.3,53.83,22,61.54,52.76,3.91,15.54,4.59,32.27,4.75,48,.41,40.92.37,82.55.33,122.81q0,24.87,0,49.74c0,1.61.11,3.22.22,4.88.05.72.1,1.45.14,2.19l.22,4.15h42.35l.47-3.85c0-.44.1-.82.16-1.16a17.82,17.82,0,0,0,.24-2.54c0-18.73.16-37.79.34-56.22.5-51.95,1-105.67-3.07-158.5C399.64,84.94,384.56,56,357.72,36.25Z" transform="translate(-10.96 -11.95)"/>
      <path class="cls-1" d="M715.31,298.82c-12,0-24.1,0-36.16.08-26.83.12-54.58.23-81.81-.57-57.45-1.71-100.4-39.41-109.4-96-1.31-8.23-1.14-17.06-1-25.6.05-2.86.11-5.7.11-8.54.05-46,31.16-89.34,73.95-103,19.18-6.14,39.42-6.92,58.33-6.88,38.23.11,72.87.07,105.92-.12,2.92,0,10.7-2.33,10.93-7.42.4-8.84.37-17.71.33-26.28q0-3.72,0-7.39V12.64h-4.39c-13.47,0-26.88-.08-40.24-.15-30.25-.16-61.54-.32-92.19.39-37.39.88-70,12.12-96.82,33.41-40.41,32-61.12,76.21-61.55,131.3-.43,54,19.49,98.13,59.21,131,29,24,65.09,35.88,110.45,36.35,13.55.14,27.22.18,40.8.18,10.7,0,21.35,0,31.83-.06q16,0,31.93,0h21.3V333.86c0-4.55,0-8.77,0-13,0-10,.07-15-3.39-18.52S725.12,298.84,715.31,298.82Z" transform="translate(-10.96 -11.95)"/>
      <path class="cls-1" d="M1496,12.37H1193V58.28l50.22,0c25.08,0,51,0,76.52-.07a13.75,13.75,0,0,1,2.74.17,9.11,9.11,0,0,1,.25,2.58c-.13,66.64,0,134.39,0,199.92l.06,84.14h4.39c3.17,0,6.21,0,9.15-.07,6.44-.07,12.53-.14,18.45.19.41,0,.85,0,1.31,0a10.53,10.53,0,0,0,7.45-2.51c2.66-2.51,3-6.22,3-9.51,0-73.27.08-147.77.18-219.82l.07-55.06h22.87l95,0h0c.36,0,.74,0,1.12,0,2.08.1,5.24.24,7.65-2.06a8.66,8.66,0,0,0,2.43-6.52c0-7.7,0-15.41,0-23.23Z" transform="translate(-10.96 -11.95)"/>
      <rect class="cls-1" y="0.39" width="42.04" height="332.37"/>
      <path class="cls-1" d="M822.28,12.36H780.44V345h4.39c2.92,0,5.76,0,8.55-.08,6.38-.09,12.41-.18,18.38.23.39,0,.81,0,1.25,0a9,9,0,0,0,7.34-3.14c2.59-3.13,2.93-7.6,2.93-11.57q-.16-144.26-.15-288.5C822.85,1.87,822.56,52.46,822.28,12.36Z" transform="translate(-10.96 -11.95)"/>
    </g>
    <g>
      <path class="cls-2" d="M1522.52,116.1V246.54h45.65V116.1A58.17,58.17,0,0,1,1626.26,58H1848V12.36H1626.26A103.74,103.74,0,0,0,1522.52,116.1Z" transform="translate(-10.96 -11.95)"/>
      <path class="cls-2" d="M1802.35,103.65V233.72a58.53,58.53,0,0,1-58.46,58.47H1522.52v45.64h221.37A104.11,104.11,0,0,0,1848,233.72V103.65Z" transform="translate(-10.96 -11.95)"/>
    </g>
    <polygon class="cls-2" points="1655.85 229.76 1585.32 160.57 1611.95 133.42 1655.75 176.38 1736.54 96.53 1763.28 123.58 1655.85 229.76"/>
  </g>
</svg>
